<?xml version="1.0" standalone="no"?>
<!DOCTYPE svg PUBLIC "-//W3C//DTD SVG 20010904//EN"
 "http://www.w3.org/TR/2001/REC-SVG-20010904/DTD/svg10.dtd">
<svg version="1.0" xmlns="http://www.w3.org/2000/svg"
 width="231.000000pt" height="231.000000pt" viewBox="0 0 231.000000 231.000000"
 preserveAspectRatio="xMidYMid meet">
<metadata>
Created by potrace 1.11, written by Peter Selinger 2001-2013
</metadata>
<g transform="translate(0.000000,231.000000) scale(0.100000,-0.100000)"
fill="#000000" stroke="none">
<path d="M956 2293 c-367 -65 -684 -307 -845 -647 -35 -74 -77 -195 -87 -251
-19 -111 -22 -158 -19 -270 2 -71 6 -143 10 -160 13 -66 47 -192 60 -220 54
-122 74 -160 122 -234 137 -207 361 -375 608 -456 220 -72 480 -70 725 7 136
42 321 160 441 279 172 172 267 355 324 624 11 51 14 276 4 345 -35 252 -150
481 -330 661 -168 167 -353 266 -599 319 -82 18 -321 20 -414 3z"/>
</g>
</svg>
